<?xml version="1.0" encoding="UTF-8"?>
<svg id="Layer_1" data-name="Layer 1" xmlns="http://www.w3.org/2000/svg" viewBox="0 0 1854.55 1074.22">
  <defs>
    <style>
      .cls-1 {
        fill: #231f20;
      }

      .cls-2 {
        fill: #ec2227;
      }
    </style>
  </defs>
  <path class="cls-1" d="M713.64,819.68l144.46,147.75c-89.57,66.96-200.77,106.62-321.2,106.62C240.38,1074.04,0,833.68,0,537.16S240.38.26,536.9.26c121.07,0,232.8,40.08,322.62,107.7l-148.77,144.85c-50.6-31.01-110.15-48.89-173.85-48.89-184.03,0-333.22,149.18-333.22,333.24s149.18,333.22,333.22,333.22c64.93,0,125.51-18.56,176.74-50.7Z"/>
  <polygon class="cls-1" points="1003.32 531.92 1534.93 1073.69 1245.53 1074.22 858.43 677.95 714.4 530.36 858.31 384.05 1236.1 0 1530.73 .45 1003.32 531.92"/>
  <rect class="cls-2" x="1571.3" y="881.52" width="191.94" height="191.94"/>
  <polygon class="cls-2" points="1854.55 790.21 1854.55 982.15 1799.47 982.15 1799.47 845.29 1662.61 845.29 1662.61 790.21 1854.55 790.21"/>
</svg>